<svg xmlns="http://www.w3.org/2000/svg" viewBox="0 0 730 160" fill-rule="evenodd" stroke-linejoin="round" clip-rule="evenodd" stroke-miterlimit="1.414"><path d="M 233.4 31 c 9.5 0.1 19.2 3.1 26.2 9.6 l 0.8 0.8 l -4.5 8.7 c -1.4 2.5 -4.7 3.9 -8.1 1.8 c -0.2 -0.1 -0.4 -0.3 -0.6 -0.4 c -0.4 -0.2 -0.7 -0.4 -1.1 -0.7 c -2.3 -1.4 -4.6 -2.6 -7.2 -3.3 c -6.4 -1.9 -14.5 -0.7 -17.4 4.7 c -1.9 3.3 -1.8 7.8 0.8 10.6 c 5 5.2 13.3 6.3 19.5 8.6 c 1.4 0.5 2.8 1.1 4.1 1.7 c 6.4 2.8 12.3 7.5 14.6 14.5 c 1.7 5 1.6 10.5 0.5 15.8 c -2.2 10.4 -10.2 19.1 -20.9 22.1 c -14 3.9 -30.2 -0.3 -40.4 -10.7 l -0.8 -0.9 l 5.3 -8.9 c 1.3 -1.9 3.8 -3 6 -2.3 c 2.7 0.8 4.8 3 7.4 4.6 c 1.1 0.7 2.3 1.2 3.5 1.8 c 7.9 3.4 18.2 2.6 21.7 -4.4 c 2 -4 2 -9.1 -0.9 -12.3 c -4.8 -5.2 -13 -6 -19.5 -8.3 c -1.2 -0.4 -2.4 -0.9 -3.6 -1.4 c -6.6 -2.8 -12.4 -7.7 -14.8 -15 c -3.4 -10.6 -0.2 -22.7 8.3 -29.8 c 5.8 -4.8 13.4 -6.9 21 -6.9 z m 447.7 28.3 h 17 v 13.1 h -17 c 0 11.5 -0.1 23 0 34.5 c 0.1 3.6 3.3 6.8 7.9 4.5 c 1.8 -0.9 3.5 -2 5.1 -0.4 c 0.3 0.3 0.5 0.6 0.8 0.9 l 5 8.4 c -5.1 4.3 -11.5 6.6 -18.2 6.5 c -5.2 0 -10.7 -1.8 -14 -6.1 c -2.8 -3.6 -3.8 -8.3 -3.9 -12.9 V 72.4 c -2 0 -3.7 0.1 -5.8 0 c -2.1 -0.2 -3.6 -2.1 -3.7 -4.3 V 61 l 10.4 -1.7 l 3.1 -17.2 c 0.5 -2 2.3 -3.4 4.4 -3.4 h 8.9 v 20.5 z M 289 72.4 c 0 11.5 -0.1 23 0 34.5 v 0.3 c 0.2 3.4 3.3 6.4 7.9 4.1 c 1.8 -0.9 3.5 -2 5.1 -0.4 c 0.3 0.3 0.5 0.6 0.8 0.9 l 5 8.4 c -5.1 4.3 -11.5 6.6 -18.2 6.5 c -5.2 0 -10.7 -1.8 -14 -6.1 c -2.8 -3.6 -3.8 -8.3 -3.9 -12.9 V 72.3 c -2 0 -3.7 0.1 -5.8 0 c -2.1 -0.2 -3.6 -2.1 -3.7 -4.3 v -7.1 l 10.4 -1.7 l 3.1 -17.2 c 0.5 -2 2.3 -3.4 4.4 -3.4 h 7.9 l 1 1 v 19.6 h 17 v 13.1 h -17 z m 51 -14.9 c 8.1 0.1 16.2 3.7 20.5 10.8 c 2.8 4.6 3.9 10 3.9 15.4 v 42.1 c -2.8 0 -5.7 0.1 -8.5 0 c -1.9 -0.1 -3.8 -0.8 -4.8 -2.3 c -0.3 -0.5 -0.6 -1.1 -0.8 -1.7 l -0.9 -3.2 c -0.2 0.2 -0.4 0.4 -0.7 0.6 c -6.3 5.4 -14.6 8.6 -23.2 7.5 c -4.6 -0.6 -9.3 -2.5 -12.2 -6.1 c -4.9 -5.9 -5.4 -15.3 -1.2 -21.4 c 5.4 -7.9 16.1 -10.7 26.3 -12 c 2.9 -0.4 5.8 -0.6 8.7 -0.7 h 0.4 c 0 -4.7 0.3 -10.1 -3.7 -13.1 c -4.3 -3.2 -11 -1.8 -15.8 1 l -3.6 2.1 c -0.7 0.4 -0.9 0.4 -1.4 0.6 c -2.8 0.9 -6 -0.2 -7.8 -3 l -3.1 -5.7 c 7.3 -6.8 17 -10.9 27.2 -11.1 h 0.7 z m 61.6 0.2 c 8.4 0.1 16.5 3.2 22.5 9.2 l 0.7 0.7 l -4.5 6.4 c -1.5 2 -4.2 3 -6.6 1.6 c -3.4 -2 -6.8 -4 -11.2 -4 c -3.9 0 -7.9 1.2 -10.5 4.2 c -4.6 4.9 -5.1 12.3 -4.8 18.6 c 0.1 1.7 0.3 3.4 0.6 5.1 c 0.9 4.7 3.1 9.4 7.2 11.7 c 4.1 2.4 9.6 2.3 13.5 0.5 c 2.1 -0.9 3.6 -2.3 5.6 -3.7 c 2 -1.4 5 -1.2 6.5 0.9 l 4.9 6.4 c -6.3 7.5 -15.8 11.8 -26.8 11.6 c -8.8 -0.2 -17.4 -4.6 -22.5 -11.8 c -7.2 -10.2 -8.3 -24.2 -4.6 -36 c 2.9 -9.2 10 -16.9 19.4 -19.8 c 3.5 -1.1 7.2 -1.5 10.8 -1.5 z M 621 29.5 v 96.4 h -10.4 c -2.1 0 -4.1 -1.5 -4.7 -3.6 l -0.9 -4.5 l -0.5 0.5 c -5.5 5.5 -13.2 9 -21.3 8.4 c -6.7 -0.5 -12.9 -4.3 -16.7 -10 c -5.5 -8.1 -6.6 -18.6 -5.9 -28.3 c 0.9 -11.7 6.4 -23.6 17.3 -28.6 c 3.7 -1.7 7.7 -2.4 11.8 -2.3 c 5.1 0.1 10.1 1.9 14.1 5.1 V 29.4 h 17.3 z m -174 96.4 h -17.3 V 29.5 H 447 v 54.1 c 2 0 4 0.1 5.3 -1.6 l 0.1 -0.2 c 5.3 -6.7 10.6 -13.3 15.8 -20 c 0.9 -1.1 1.9 -2.1 3.2 -2.6 c 0.9 -0.4 1.9 -0.5 2.9 -0.5 h 16.1 l -21.1 25.8 c -0.3 0.4 -0.3 0.4 -0.5 0.7 c -0.9 1.2 -2 2.2 -3.2 3.1 c 0 0 1.9 2 3.3 4.2 l 0.1 0.2 l 22.2 33.1 h -15.8 c -2.4 0 -4.8 -1.1 -5.9 -3.2 l -16.3 -24.8 c -0.1 -0.1 -0.1 -0.2 -0.2 -0.3 c -0.8 -1.2 -2.2 -1.6 -3.6 -1.6 h -2.5 v 29.9 z m 202 0 h -17.3 V 58.8 H 649 v 67.1 z m -92.5 -78.3 h -39.8 v 23.5 h 31.4 v 15.1 h -31.4 v 24 h 39.8 v 15.6 H 498 V 32 h 58.5 v 15.5 z M 347.2 98.1 c -6.1 0.4 -12.6 0.6 -17.9 3.8 c -2.3 1.4 -3.8 3.9 -3.4 6.9 c 0.2 1.8 1.3 3.5 2.9 4.4 c 1.6 0.8 3.4 1 5.2 1 c 3.2 -0.1 6.3 -1 9 -2.7 c 1.6 -1.1 3 -2.4 4.4 -3.8 v -9.6 h -0.2 z m 244.9 -26.7 c -5.1 0.1 -9.8 3.3 -11.9 8.3 c -2.5 5.9 -2.5 12.6 -1.7 19.2 c 0.7 5.4 2.6 11.1 7.5 12.9 c 3.9 1.4 8.5 0.8 12 -1.3 c 2.2 -1.4 4 -3.2 5.7 -5.2 V 76.8 c -2.8 -3.3 -7 -5.3 -11.5 -5.3 z m 48.2 -41.7 c 5.2 0.1 9.9 4.3 10.7 9.5 c 1 7.3 -7.1 15.1 -15.1 11.4 c -5.2 -2.4 -7.9 -9.2 -5.3 -14.7 c 1.7 -3.6 5.4 -6.1 9.4 -6.2 h 0.3 z M 703 110 v 7 h 10 v 10 h 7 v -10 h 10 v -7 h -10 v -10 v 0 h -7 V 110 Z" fill="#606060" fill-rule="nonzero"/><path d="M160 40c0-22.1-17.9-40-40-40H40C17.9 0 0 17.9 0 40v80c0 22.1 17.9 40 40 40h80c22.1 0 40-17.9 40-40V40z" fill="none"/><clipPath id="prefix__a"><path d="M160 40c0-22.1-17.9-40-40-40H40C17.9 0 0 17.9 0 40v80c0 22.1 17.9 40 40 40h80c22.1 0 40-17.9 40-40V40z"/></clipPath><g clip-path="url(#prefix__a)"><path d="M160 0H0l80 80 80-80z" fill="gold"/><path d="M0 0v160l80-80L0 0z" fill="#a5c700"/><path d="M0 160h160L80 80 0 160z" fill="#ff8a00"/><path d="M160 160V0L80 80l80 80z" fill="#66aefd"/><path d="M150-10L80 60l20 20 70-70-20-20z" fill="url(#prefix___Linear2)"/><path d="M170 150l-70-70-20 20 70 70 20-20z" fill="url(#prefix___Linear3)"/><path d="M10 170l70-70-20-20-70 70 20 20z" fill="url(#prefix___Linear4)"/><path d="M-10 10l70 70 20-20-70-70-20 20z" fill="url(#prefix___Linear5)"/></g><path d="M145 39c0-14.6-11.9-26.5-26.5-26.5h-77C26.9 12.5 15 24.4 15 39v77c0 14.6 11.9 26.5 26.5 26.5h77c14.6 0 26.5-11.9 26.5-26.5V39z" fill="#fff"/><path d="m 30.9 40.1 h 9.1 v -12.2 h 9.3 v 12.2 h 11.3 v -12.2 h 9.3 v 12.2 h 9.1 v 11.3 h -9.1 v 12.7 h 9.1 v 11.3 h -9.1 v 12.2 h -9.3 v -12.2 h -11.3 v 12.2 h -9.3 v -12.2 h -9.1 v -11.3 h 9.1 v -12.7 h -9.1 v -11.3 z m 18.5 11.3 v 12.7 h 11.3 v -12.7 h -11.3 z m 25.6 45.6 v 14 h 20 v 20 h 14 v -20 h 20 v -14 h -20 v -20 h -14 v 20 h -20 z" fill="#737373"/><defs><linearGradient id="prefix___Linear2" x1="0" y1="0" x2="1" y2="0" gradientUnits="userSpaceOnUse" gradientTransform="rotate(-135 84.142 -23.134) scale(28.2866)"><stop offset="0" stop-color="#66aefd"/><stop offset="1" stop-color="gold"/></linearGradient><linearGradient id="prefix___Linear3" x1="0" y1="0" x2="1" y2="0" gradientUnits="userSpaceOnUse" gradientTransform="rotate(-45 263.163 -88.993) scale(28.2866)"><stop offset="0" stop-color="#ff8a00"/><stop offset="1" stop-color="#66aefd"/></linearGradient><linearGradient id="prefix___Linear4" x1="0" y1="0" x2="1" y2="0" gradientUnits="userSpaceOnUse" gradientTransform="rotate(45 -169.01 69.983) scale(28.2866)"><stop offset="0" stop-color="#a5c700"/><stop offset="1" stop-color="#ff8a00"/></linearGradient><linearGradient id="prefix___Linear5" x1="0" y1="0" x2="1" y2="0" gradientUnits="userSpaceOnUse" gradientTransform="rotate(135 9.992 4.14) scale(28.2866)"><stop offset="0" stop-color="gold"/><stop offset="1" stop-color="#a5c700"/></linearGradient></defs></svg>