<svg xmlns="http://www.w3.org/2000/svg" viewBox="0 0 180 180"><path d="M20.512 178.499c-3.359-.884-6.258-2.184-8.931-4.006-2.257-1.538-5.556-4.717-6.811-6.563-1.532-2.255-3.293-6.117-4.011-8.795-.732-2.732-.743-3.82-.757-69.395-.013-65.245.002-66.679.72-69.483C3.259 10.341 11.117 2.797 21.251.546c2.914-.647 133.08-.76 136.223-.118 8.509 1.738 15.198 6.846 19.068 14.564 3.078 6.135 2.803-.617 2.943 72.231.09 46.349.007 65.808-.288 68.232-1.386 11.345-9.211 20.143-20.471 23.019-2.88.735-3.882.746-69.275.726-63.227-.019-66.474-.052-68.939-.701z" fill="#f57d00"/><path d="M115.162 144.835c8.064-1.1 14.384-4.333 20.313-10.39 4.289-4.382 6.974-9.125 8.728-15.419.729-2.615.79-3.888.924-19.242.101-11.588.017-17.015-.285-18.385-.437-1.986-1.677-3.83-3.092-4.599-.435-.237-3.224-.538-6.198-.67-4.982-.221-5.54-.318-7.113-1.24-2.494-1.462-3.181-3.041-3.188-7.327-.013-8.189-3.421-15.792-10.155-22.654-4.797-4.889-10.149-8.198-16.257-10.052-1.462-.444-4.736-.595-15.702-.725-17.207-.203-21.026.15-26.884 2.483-10.8 4.302-18.56 13.368-21.39 24.99-.532 2.183-.635 5.682-.761 25.779-.157 25.177.016 28.874 1.59 33.864 1.299 4.122 2.611 6.648 5.313 10.234 5.146 6.83 12.86 11.763 20.572 13.156 3.67.663 48.948.829 53.585.197z" fill="#fff"/><path d="M67.575 75.717c-4.123-1.136-5.663-7.051-2.633-10.111 1.937-1.955 2.472-2.029 14.595-2.029 10.883 0 11.249.023 12.848.831 2.31 1.167 3.314 2.812 3.314 5.432 0 2.367-.943 4.025-3.046 5.357-1.129.716-1.804.76-12.467.823-6.584.039-11.83-.087-12.611-.303zM67.058 115.526c-1.769-.771-3.417-2.913-3.702-4.813-.272-1.809.638-4.296 2.032-5.558 1.757-1.59 2.528-1.643 24.134-1.66 22.227-.017 22.111-.027 24.219 1.941 2.976 2.78 2.349 7.728-1.239 9.76l-3.686.6-19.213.224c-16.883.198-21.666-.111-22.545-.494z" fill="#f57d00"/></svg>